<svg xmlns="http://www.w3.org/2000/svg" viewBox="0 0 866 520" enable-background="new 0 0 866 520"><g enable-background="new"><path d="m863.4 302.2c-2.6-6.1-6.8-11.3-12.1-15-2.7-1.8-5.6-3.3-8.8-4.3-3.2-1-6.5-1.5-10-1.5h-159.7c0 0-.1 0-.2 0l-.5-.1h-.6c-2.2-.2-4.3-.7-6.2-1.7-2.8-1.4-5.2-3.5-6.9-6.2-.8-1.3-1.5-2.8-1.9-4.3-.5-1.5-.7-3.2-.7-4.9 0-2.3.5-4.5 1.3-6.5 1.2-3 3.3-5.6 5.9-7.4 1.3-.9 2.7-1.7 4.3-2.2 1.5-.5 3.2-.8 4.9-.9l2.4-.1h65.5c4.6 0 9.1-1 13.1-2.7 6-2.6 11.1-6.9 14.8-12.3 1.8-2.7 3.2-5.7 4.2-8.9 1-3.2 1.5-6.6 1.5-10.1 0-4.7-.9-9.2-2.6-13.2-2.6-6.1-6.8-11.3-12.1-15-2.7-1.8-5.6-3.3-8.8-4.3-3.2-1-6.5-1.5-10-1.5h-151.6c-2.4 0-4.6-.5-6.6-1.3-3-1.3-5.6-3.5-7.4-6.2-.9-1.4-1.6-2.9-2.1-4.5-.5-1.6-.8-3.3-.8-5.1 0-2.4.5-4.6 1.3-6.7 1.3-3.1 3.4-5.7 6.1-7.5 1.3-.9 2.8-1.7 4.4-2.2 1.6-.5 3.3-.8 5-.8h66.2l-7-12.6c-22-39.4-53.8-72.5-92.1-95.7-19.2-11.6-39.9-20.7-61.9-27-22-6.2-45.2-9.6-69.1-9.6-23.9 0-47.1 3.3-69.1 9.6-33 9.4-63.3 25.2-89.4 46.1-24.9 19.9-46.1 44.4-62.3 72.2h-128.2c-4.6 0-9.1 1-13.1 2.7-6 2.6-11.1 6.9-14.8 12.3-1.8 2.7-3.2 5.7-4.2 8.9-1 3.2-1.5 6.6-1.5 10.1 0 4.7.9 9.2 2.6 13.2 2.6 6.1 6.8 11.3 12.1 15 2.7 1.8 5.6 3.3 8.8 4.3 3.2 1 6.5 1.5 10 1.5h134.5c2.4 0 4.6.5 6.6 1.3 3 1.3 5.6 3.5 7.4 6.2.9 1.4 1.6 2.9 2.1 4.5.5 1.6.8 3.3.8 5.1 0 2.4-.5 4.6-1.3 6.7-1.3 3.1-3.4 5.7-6.1 7.5-1.3.9-2.8 1.7-4.4 2.1-1.6.5-3.3.8-5 .8h-50.5c-4.6 0-9.1 1-13.1 2.7-6 2.6-11.1 6.9-14.8 12.3-1.8 2.7-3.2 5.7-4.2 8.9s-1.5 6.6-1.5 10.1c0 4.7.9 9.2 2.6 13.2 2.6 6.1 6.8 11.3 12.1 15 2.7 1.8 5.6 3.3 8.8 4.3 3.2 1 6.5 1.5 10 1.5h75.7c2.4 0 4.6.5 6.6 1.3 3 1.3 5.6 3.5 7.4 6.2.9 1.4 1.6 2.9 2.1 4.5.5 1.6.8 3.3.8 5.1 0 2.4-.5 4.6-1.3 6.7-1.3 3.1-3.4 5.7-6.1 7.5-1.4.9-2.8 1.7-4.4 2.1-1.6.5-3.3.8-5 .8h-201.7c-4.6 0-9.1 1-13.1 2.7-6 2.6-11.1 6.9-14.8 12.3-1.8 2.7-3.2 5.7-4.2 8.9-1 3.2-1.5 6.6-1.5 10.1 0 4.7.9 9.2 2.6 13.2 2.6 6.1 6.8 11.3 12.1 15 2.7 1.8 5.6 3.3 8.8 4.3 3.2 1 6.5 1.5 10 1.5h175.5c22.4 35.2 52.9 64.6 88.9 85.4 37.3 21.6 80.6 33.9 126.7 33.9 28.2 0 55.3-4.6 80.6-13.1 38-12.8 72.1-34.4 99.9-62.3 26.4-26.6 47.1-59 60.2-95.1h167.1c4.6 0 9.1-1 13.1-2.7 6-2.6 11.1-6.9 14.8-12.3 1.8-2.7 3.2-5.7 4.2-8.9 1-3.2 1.5-6.6 1.5-10.1 0-4.2-.9-8.7-2.6-12.8m-15.4 19.9c-1.3 3.1-3.4 5.7-6.1 7.5-1.3.9-2.8 1.7-4.4 2.1-1.6.5-3.3.8-5 .8h-179l-1.9 5.7c-16.1 47.9-46.5 89.1-86 118.4-19.8 14.6-41.8 26.2-65.5 34.2-23.7 8-49 12.3-75.4 12.3-21.6 0-42.4-2.9-62.3-8.3-29.8-8.1-57.2-21.9-81.2-40.2-24-18.2-44.5-41-60.4-66.9l-2.4-4h-184.8c-2.4 0-4.6-.5-6.6-1.3-3-1.3-5.6-3.5-7.4-6.2-.9-1.4-1.6-2.9-2.1-4.5-.5-1.6-.8-3.3-.8-5.1 0-2.4.5-4.6 1.3-6.7 1.3-3.1 3.4-5.7 6.1-7.5 1.3-.9 2.8-1.7 4.4-2.1 1.6-.5 3.3-.8 5-.8h201.8c4.6 0 9.1-1 13.1-2.7 6-2.6 11.1-6.9 14.8-12.3 1.8-2.7 3.2-5.7 4.2-8.9 1-3.2 1.5-6.6 1.5-10.1 0-4.7-.9-9.2-2.6-13.2-2.6-6.1-6.8-11.3-12.1-15-2.7-1.8-5.6-3.3-8.8-4.3-3.2-1-6.5-1.5-10-1.5h-75.7c-2.4 0-4.6-.5-6.6-1.3-3-1.3-5.6-3.5-7.4-6.2-.9-1.4-1.6-2.9-2.1-4.5-.5-1.6-.8-3.3-.8-5.1 0-2.4.5-4.6 1.3-6.7 1.3-3.1 3.4-5.7 6.1-7.5 1.3-.9 2.8-1.7 4.4-2.1 1.6-.5 3.3-.8 5-.8h50.5c4.6 0 9.1-1 13.1-2.7 6-2.6 11.1-6.9 14.8-12.3 1.8-2.7 3.2-5.7 4.2-8.9 1-3.2 1.5-6.6 1.5-10.1 0-4.7-.9-9.2-2.6-13.2-2.6-6.1-6.8-11.3-12.1-15-2.7-1.8-5.6-3.3-8.8-4.3-3.2-1-6.5-1.5-10-1.5h-134.6c-2.4 0-4.6-.5-6.6-1.3-3-1.3-5.6-3.5-7.4-6.2-.9-1.4-1.6-2.9-2.1-4.5-.5-1.6-.8-3.3-.8-5.1 0-2.4.5-4.6 1.3-6.7 1.3-3.1 3.4-5.7 6.1-7.5 1.3-.9 2.8-1.7 4.4-2.2 1.6-.5 3.3-.8 5-.8h137.8l2.4-4.3c20.6-36.9 50.4-67.8 86.2-89.5 18.1-11 37.5-19.6 58.1-25.4 20.5-5.8 42.2-8.9 64.6-8.9 22.4 0 44 3.1 64.6 8.9 30.8 8.7 59.1 23.6 83.5 43.1 20.7 16.5 38.6 36.5 53 58.9h-37.1c-4.6 0-9.1 1-13.1 2.7-6 2.6-11.1 6.9-14.8 12.3-1.8 2.7-3.2 5.7-4.2 8.9-1 3.2-1.5 6.6-1.5 10.1 0 4.7.9 9.2 2.6 13.2 2.6 6.1 6.8 11.3 12.1 15 2.7 1.8 5.6 3.3 8.8 4.3 3.2 1 6.5 1.5 10 1.5h151.4c2.4 0 4.6.5 6.6 1.3 3 1.3 5.6 3.5 7.4 6.2.9 1.4 1.6 2.9 2.1 4.5.5 1.6.8 3.3.8 5.1 0 2.4-.5 4.6-1.3 6.7-1.3 3.1-3.4 5.7-6.1 7.5-1.3.9-2.8 1.7-4.4 2.1-1.6.5-3.3.8-5 .8h-66.3c-1.1 0-3.2.1-4.2.2-3.8.4-7.3 1.4-10.6 2.9-5.8 2.7-10.7 6.9-14.2 12.3-1.7 2.7-3.1 5.6-4.1 8.8-.9 3.1-1.4 6.5-1.4 9.9 0 4.5.9 8.8 2.4 12.7 2.4 5.9 6.3 10.9 11.3 14.6 2.5 1.8 5.2 3.3 8.2 4.5 2.8 1 5.7 1.7 8.8 2 .3 0 .5.1.7.1.6.1 1.1.1 1.4.1.4 0 .6 0 .7 0h159.9c2.4 0 4.6.5 6.6 1.3 3 1.3 5.6 3.5 7.4 6.2.9 1.4 1.6 2.9 2.1 4.5.5 1.6.8 3.3.8 5.1-.2 2.6-.6 4.8-1.5 6.9m-309.6-17.6c-6.6-4.7-13.7-8.8-21.3-12.5-7.7-3.7-14.8-7.4-21.3-11-6.6-3.7-12.1-7.7-16.5-12.1-4.4-4.3-6.6-9.6-6.7-15.7 0-2.2.3-4.6.8-7.2.6-2.7 1.7-5.2 3.3-7.4 1.7-2.3 3.9-4.2 6.7-5.7 2.8-1.5 6.4-2.3 10.9-2.3 8.1 0 14.1 2.6 18 7.8 3.9 5.2 5.9 10.7 5.9 16.3 0 9.1 2.3 14.5 6.9 16.3 4.6 1.8 10.7 2.8 18.2 2.8h15.9v-20.8c0-7.9-1.2-15.3-3.6-22.1-2.4-6.8-6.2-12.7-11.5-17.6-5.3-4.9-12.2-8.8-20.7-11.7-8.5-2.8-18.9-4.2-31.2-4.2-10.1 0-19.1 1.4-27.2 4.2v-38.6c0-21.2-5.2-38-15.5-50.5-10.3-12.4-27.3-18.7-51-18.7h-89.9v10.6c0 5.7 1 10.2 2.9 13.6 1.9 3.4 4.3 5.9 7.1 7.6 3.6 2 5.4 5.1 5.4 9.3v235.4c0 2.8-.4 4.8-1 5.9-.7 1.1-1.7 2.3-3.1 3.4-2.2 1.7-4.5 4.1-6.7 7.2-2.2 3.1-3.3 7.1-3.3 11.9v12.3h69.8v-12.3c0-4.8-1.1-8.8-3.3-11.9-2.2-3.1-4.5-5.5-6.7-7.2-1.4-1.1-2.4-2.3-3.1-3.4-.7-1.1-1-3.1-1-5.9v-88.2c0-3.4 1.9-5.1 5.9-5.1h27.2c14.6 0 26.7-2.3 36.2-6.9 1.1 3.9 2.6 7.6 4.6 10.9 4.3 7.2 9.8 13.5 16.5 18.9 6.7 5.4 13.8 10 21.3 14 7.5 4 14.6 7.7 21.3 11.2 6.7 3.5 12.2 7.1 16.5 10.6 4.3 3.5 6.5 7.6 6.5 12.1v4.2c0 7.6-1.7 14-5.2 19.1-3.5 5.1-10.5 7.6-21.1 7.6-10.6 0-17.6-2.5-20.9-7.6-3.3-5.1-5-11.3-5-18.7v-.8c0-8.2-1.6-13.6-4.8-16.1-3.2-2.5-8.9-3.8-16.9-3.8h-18.8v26.7c0 18.4 6.3 32 19 40.9 12.7 8.9 29.2 13.4 49.6 13.4 19.8 0 35.5-4.9 47-14.9 11.6-9.9 17.4-24.6 17.4-44.1v-11c0-8.8-2.2-16.2-6.7-22.3-4.7-5.9-10.2-11.2-16.8-15.9m-114.8-95.7c0 9.9-2 17.8-6.1 23.8-4 5.9-10.4 8.9-19 8.9h-27.6c-3.6 0-5.4-2-5.4-5.9v-100.1c0-2 .7-3.5 2.1-4.5 1.4-1 2.9-1.5 4.6-1.5h26.3c8.6 0 15 3 19 8.9 4 5.9 6.1 13.9 6.1 23.8v46.6" fill="silver" fill-rule="evenodd"/></g></svg>