<?xml version="1.0" encoding="utf-8"?>
<!-- Generator: Adobe Illustrator 21.0.2, SVG Export Plug-In . SVG Version: 6.00 Build 0)  -->
<svg version="1.1" id="Layer_1" xmlns="http://www.w3.org/2000/svg" xmlns:xlink="http://www.w3.org/1999/xlink" x="0px" y="0px"
	 viewBox="0 0 457.7 295.9" style="enable-background:new 0 0 457.7 295.9;" xml:space="preserve">
<style type="text/css">
	.st0{clip-path:url(#SVGID_2_);fill: goldenrod;}
	.st1{clip-path:url(#SVGID_4_);fill: silver;}
	.st2{clip-path:url(#SVGID_6_);fill: silver;}
	.st3{clip-path:url(#SVGID_8_);fill: silver;}
	.st4{clip-path:url(#SVGID_10_);fill:silver;}
	.st5{clip-path:url(#SVGID_12_);fill:silver;}
</style>
<g>
	<g>
		<defs>
			<rect id="SVGID_1_" y="0" width="457.7" height="301.3"/>
		</defs>
		<clipPath id="SVGID_2_">
			<use xlink:href="#SVGID_1_"  style="overflow:visible;"/>
		</clipPath>
		<path class="st0" d="M441.9,231.1c-12.7-2-23.5,8.8-21.5,21.5c1.2,7.9,7.7,14.3,15.6,15.6c12.7,1.9,23.4-8.8,21.5-21.5
			C456.2,238.8,449.8,232.3,441.9,231.1"/>
	</g>
	<g>
		<defs>
			<rect id="SVGID_3_" y="0" width="457.7" height="301.3"/>
		</defs>
		<clipPath id="SVGID_4_">
			<use xlink:href="#SVGID_3_"  style="overflow:visible;"/>
		</clipPath>
		<path class="st1" d="M412.4,151.7c-4.6-8.2-10.6-15.1-18-20.7c-4.1-3.1-8.5-5.8-13.1-8.1c5.2,7.7,8.9,16,11,25
			c2.4,10.2,1.3,21.5-3.3,33.8c-5,13.4-12.1,23.8-21.5,31.1s-20.1,12.2-32.2,14.7s-25,2.9-38.6,1.2s-27.1-5-40.5-10
			c-3.6-1.3-7.2-2.8-10.7-4.4c-1.2,2.2-2.8,4.1-4.8,5.7c6.8,7,15.1,12.9,24.9,17.9c17.2,8.7,35.2,13.4,53.9,14.2
			c12.2,0.5,24.1-0.5,35.7-2.9s22-6.5,31.2-12.1s16.7-12.9,22.5-22c5.8-9,8.9-20.1,9.5-33.2C419.1,170,417,159.9,412.4,151.7"/>
	</g>
	<g>
		<defs>
			<rect id="SVGID_5_" y="0" width="457.7" height="301.3"/>
		</defs>
		<clipPath id="SVGID_6_">
			<use xlink:href="#SVGID_5_"  style="overflow:visible;"/>
		</clipPath>
		<path class="st2" d="M246.7,84.3c2.2-13.9,7-25.3,14.7-34.1c7.6-8.8,17.1-15.5,28.3-20.1c11.2-4.6,23.6-7.3,37.1-8.1
			s27.3,0,41.2,2.5c3.1,0.5,6.1,1.2,9.1,1.9c1-2.7,2.6-5.1,4.6-7c-8.2-6-17.6-11-27.8-14C335.5,0,317.2-1.4,299,1.2
			c-11.9,1.7-23.3,4.8-34,9.2c-10.7,4.4-20,10.2-27.9,17.3c-7.4,6.7-13,14.6-16.8,23.7c12.8,15.1,21.9,33.2,25.9,52.8
			C245.5,98.2,245.6,91.5,246.7,84.3"/>
	</g>
	<g>
		<defs>
			<rect id="SVGID_7_" y="0" width="457.7" height="301.3"/>
		</defs>
		<clipPath id="SVGID_8_">
			<use xlink:href="#SVGID_7_"  style="overflow:visible;"/>
		</clipPath>
		<path class="st3" d="M287.3,65.2c0,0-25,26.2-1.1,48s88.1,44.7,89.2,70.9c0,0,15.2-45.8-43.5-72S287.3,65.2,287.3,65.2"/>
	</g>
	<g>
		<defs>
			<rect id="SVGID_9_" y="0" width="457.7" height="301.3"/>
		</defs>
		<clipPath id="SVGID_10_">
			<use xlink:href="#SVGID_9_"  style="overflow:visible;"/>
		</clipPath>
		<path class="st4" d="M32,147.7c-1.3-3.8-2.4-7.6-3.4-11.5c-2.9-11.5-4.5-23.6-4.5-36.1c0-27,7.3-52.3,20-74
			C16.9,49.7-0.3,84.6,0,123.6l0,0v147.8c11.2,6.9,21.4,15.1,30.4,24.6H32v-89c21.6,24.5,52.3,40.8,86.7,43.3
			c14.6,1,28.7-0.4,42-3.9C100.8,242.3,50.7,202.3,32,147.7"/>
	</g>
	<g>
		<defs>
			<rect id="SVGID_11_" y="0" width="457.7" height="301.3"/>
		</defs>
		<clipPath id="SVGID_12_">
			<use xlink:href="#SVGID_11_"  style="overflow:visible;"/>
		</clipPath>
		<path class="st5" d="M248.8,126.3C248.8,58,193.4,2.6,125.1,2.6c-19.1,0-37.1,4.3-53.3,12C59.3,29.5,50.1,47.4,45.4,67
			C63,43.2,91.5,27.8,123.5,28.3c49,0.7,90.3,39.6,93.8,88.4c3.9,53.5-36.3,98.4-87.9,102.4c12.8,4.3,26.6,6.7,40.9,6.7
			c11.8,0,23.3-1.6,34.2-4.6C231.6,198.4,248.8,164.3,248.8,126.3"/>
	</g>
</g>
</svg>
